/* XPM */
static char *af1e053283c74962b3ad4df784225a54TByaNfLpbIZJMwjs[] = {
/* columns rows colors chars-per-pixel */
"32 32 9 1 ",
"  c black",
". c #070707",
"X c gray5",
"o c gray45",
"O c #767676",
"+ c #939393",
"@ c #959595",
"# c gray98",
"$ c white",
/* pixels */
"$$$$$$$$$$$$$$$$$$$$$$$$$$$$$$$$",
"$$$$$$$$$$$$$$$$$$$$$$$$$$$$$$$$",
"$$$$$$$$$$$$$$$$$$$$$$$$$$$$$$$$",
"$$$$$$$$$$$$$$$$$$$$$$$$$$$$$$$$",
"$$$$$                      $$$$$",
"$$$$                        $$$$",
"$$$$                        $$$$",
"$$$$   $$$$$$$$$$$$$$$$$$.  $$$$",
"$$$$   $$$$$$$$$$$$$$$$$$.  $$$$",
"$$$$   $$$$$$$$+$$$$$$$$$.  $$$$",
"$$$$   $$$$$$$  +$$$$$$$$.  $$$$",
"$$$$   $$$$$$$   +$$$$$$$.  $$$$",
"$$$$$$$$$$$$$$$   +$$$$$$.  $$$$",
"$$$$$$$$$$$$$$$$   +$$$$$.  $$$$",
"$$$$$$$$$$$$$$$$$   @$$$$.  $$$$",
"$$$$                 @$$$.  $$$$",
"$$$$                 O$$$.  $$$$",
"$$$$#############   O$$$$.  $$$$",
"$$$$$$$$$$$$$$$$   O$$$$$.  $$$$",
"$$$$$$$$$$$$$$$   O$$$$$$.  $$$$",
"$$$$   $$$$$$$   O$$$$$$$.  $$$$",
"$$$$   $$$$$$$  O$$$$$$$$.  $$$$",
"$$$$   $$$$$$$$o$$$$$$$$$.  $$$$",
"$$$$   $$$$$$$$$$$$$$$$$$.  $$$$",
"$$$$   $$$$$$$$$$$$$$$$$$.  $$$$",
"$$$$   XXXXXXXXXXXXXXXXXX   $$$$",
"$$$$                        $$$$",
"$$$$$                      $$$$$",
"$$$$$$$$$$$$$$$$$$$$$$$$$$$$$$$$",
"$$$$$$$$$$$$$$$$$$$$$$$$$$$$$$$$",
"$$$$$$$$$$$$$$$$$$$$$$$$$$$$$$$$",
"$$$$$$$$$$$$$$$$$$$$$$$$$$$$$$$$"
};
