/* XPM */
static char * collectible_xpm[] = {
"32 32 176 2",
"  	c #F67900",
". 	c #F28700",
"+ 	c #8B7342",
"@ 	c #FAECB9",
"# 	c #FEF2B7",
"$ 	c #FDF4C3",
"% 	c #F7E6A6",
"& 	c #F6E49C",
"* 	c #EFDB96",
"= 	c #D9C283",
"- 	c #C3A86C",
"; 	c #CEB575",
"> 	c #C3AA65",
", 	c #BBA262",
"' 	c #AD9352",
") 	c #A38747",
"! 	c #8E784A",
"~ 	c #5C4827",
"{ 	c #F96A00",
"] 	c #EEE1B9",
"^ 	c #BDAB83",
"/ 	c #A28E6D",
"( 	c #9B8867",
"_ 	c #A59372",
": 	c #A99677",
"< 	c #968259",
"[ 	c #FFFCD4",
"} 	c #816F54",
"| 	c #847256",
"1 	c #877456",
"2 	c #7A6C54",
"3 	c #746144",
"4 	c #352913",
"5 	c #6A5233",
"6 	c #C8B27C",
"7 	c #C8B797",
"8 	c #DAC995",
"9 	c #3B290D",
"0 	c #050505",
"a 	c #B39E77",
"b 	c #B79C56",
"c 	c #DCC47E",
"d 	c #EED890",
"e 	c #8E7B5C",
"f 	c #6A583A",
"g 	c #A49A89",
"h 	c #FFFDDB",
"i 	c #3B2F1B",
"j 	c #E9D6A9",
"k 	c #C6B589",
"l 	c #B9A77C",
"m 	c #5D4C34",
"n 	c #162434",
"o 	c #223648",
"p 	c #262E38",
"q 	c #131C29",
"r 	c #291D0A",
"s 	c #D5BB75",
"t 	c #998563",
"u 	c #DBCCA3",
"v 	c #CCB26F",
"w 	c #050809",
"x 	c #3C5064",
"y 	c #182938",
"z 	c #263B48",
"A 	c #1D3143",
"B 	c #192633",
"C 	c #BCA354",
"D 	c #36250B",
"E 	c #554732",
"F 	c #D5FAFF",
"G 	c #65AAC8",
"H 	c #82CCE6",
"I 	c #1C2C3A",
"J 	c #1A1304",
"K 	c #7E9390",
"L 	c #324858",
"M 	c #312512",
"N 	c #58421A",
"O 	c #FEFFE4",
"P 	c #0A1117",
"Q 	c #5F6470",
"R 	c #B4AA91",
"S 	c #43423D",
"T 	c #464F53",
"U 	c #190E03",
"V 	c #5C441A",
"W 	c #8B7238",
"X 	c #95ADB1",
"Y 	c #2A3135",
"Z 	c #2F6B92",
"` 	c #151C25",
" .	c #192028",
"..	c #2B210D",
"+.	c #45351A",
"@.	c #6DC3DD",
"#.	c #383D46",
"$.	c #495F71",
"%.	c #664B1D",
"&.	c #4B3309",
"*.	c #3F4040",
"=.	c #28241B",
"-.	c #9C8242",
";.	c #2D2311",
">.	c #3D301A",
",.	c #937B42",
"'.	c #151619",
").	c #FFFACA",
"!.	c #EEE098",
"~.	c #1B1B1B",
"{.	c #967A3B",
"].	c #745B2C",
"^.	c #6E5424",
"/.	c #6A582C",
"(.	c #D7CDB7",
"_.	c #11110E",
":.	c #4D3C1C",
"<.	c #251F18",
"[.	c #65553A",
"}.	c #7B622C",
"|.	c #9F864B",
"1.	c #543B14",
"2.	c #6A5229",
"3.	c #3A3733",
"4.	c #141414",
"5.	c #7D6531",
"6.	c #233443",
"7.	c #E9E1D4",
"8.	c #C6B9A4",
"9.	c #545554",
"0.	c #2A3C4C",
"a.	c #412E12",
"b.	c #4B3617",
"c.	c #3B2C12",
"d.	c #A7916D",
"e.	c #716651",
"f.	c #191917",
"g.	c #312D28",
"h.	c #493B26",
"i.	c #4A4945",
"j.	c #948778",
"k.	c #C1A75A",
"l.	c #755928",
"m.	c #DADAD6",
"n.	c #282827",
"o.	c #3B352A",
"p.	c #443F36",
"q.	c #2C1C03",
"r.	c #9D813F",
"s.	c #2C2C2B",
"t.	c #9F9886",
"u.	c #E3CB84",
"v.	c #251604",
"w.	c #60461B",
"x.	c #967E5A",
"y.	c #856A36",
"z.	c #81662B",
"A.	c #38260A",
"B.	c #836D4A",
"C.	c #79664B",
"D.	c #443112",
"E.	c #765935",
"F.	c #644D25",
"G.	c #AD9B7B",
"H.	c #B6A588",
"I.	c #503C1A",
"J.	c #7B6442",
"K.	c #412B0D",
"L.	c #816941",
"M.	c #78603C",
"N.	c #735D3C",
"O.	c #AD945E",
"P.	c #A88C52",
"Q.	c #B3984E",
"R.	c #C0A757",
"S.	c #C3AA5B",
"                                                                ",
"      .                                                         ",
"                                                                ",
"          + @ # $ # @ % & & * = - ; ; ; ; > , ' ) ! ~     {     ",
".         ~ ] ^ / ( _ : : < [ % % % [ } | 1 | 2 3 | 4           ",
"          5 ] ( 6 7 8 @ [ & 9 0 a b c d @ e 1 f g h i           ",
"          f j k l k [ # m 0 n o p n q r s c < e t h i         { ",
"          m u ^ l # v w x y z & % A y B B C > D 1 [ 4           ",
"          E k l % ' F G H I [ [ J I n K L n ' b < h M           ",
"  .       N _ O s P Q R S T U V W n X Y Z `  .) ' @ ..  {       ",
"          +._ ' 0 A @.#.$.P z %.&.B I *.=.q 0 w -.U ;.          ",
"          >.8 ,.'.A o z T [ [ = ).!.c N ~.9  .B W {.M           ",
"          >.].0 z w y q P k ' # # ^./.(._.` $ B k W M           ",
"          :.~ <.! i [.q p }.|.% s 1.V  .2.1 3._.4.5.4       {   ",
"          +.N 6.7.8.9.o 0.V $ a.b.c.|.d.B e.3.f.g.^.M           ",
"          >.h.i.S 2 j.` o A k.l.l.^.p n m.h.n.S o.~ ..          ",
"          M o.p.(.g <.n.0.^ q.5.r.b.I s.j.R g e.m ..M           ",
"          r a.: t p.t.j.2 * u.v.w.v.2 3 x.8.x.5 5 y.D         { ",
"          r 2./ R | h.i E z.&.a.9 b.a._ A.B.f a y./.M           ",
"          r h.t : / C.1 e > 1.9 v.N D.d.7 7 E.F.].M M     {     ",
"          r +.} ( 2 8.G.H.) ,.{.4 A.~ 9 7 G.< E.].M D           ",
"          r +.I.: B.( H.b.F.{.5 J r &.a.t 7 : ^.4 ..;.          ",
"          r E F.B.E.G.J.G.6 K.k |.F.1.^.E.a $ O a.;.M     {     ",
"          M p.8 z.L.7 5 5 M.* q.}.A.9 ].7 k k 1.E M M           ",
"          M h.C.1.{.3 5 / N.H.* w.d.].y.C.h ~ f [.M 4           ",
"          4 h.( C.D.) b ~ B.1 b w.J.M.J.%./.t [.3 4 D.        { ",
"          I.h.C.1 e f b ,.O.} F.P.M ^.z.W / 3 3 f 4 :.{         ",
"          E.h.e C.| J.m 3 Q.{.-.{.,.-.2 f f f 3 2 :.2.          ",
"          ,.h.F.a.9 K.K.D.K.A.1.J a.A.q.N 5.}.,.' }.W     {     ",
"          b R.b C k.k.k.S.S.S.k.S.k.R.R.C b C b Q.Q.Q.          ",
"                            {       {                           ",
"                                        {       {       {     { "};
