/* XPM */
static char * floor_xpm[] = {
"32 32 3 1",
" 	c #F67900",
".	c #F28700",
"+	c #F96A00",
"                                ",
"   .                            ",
"                                ",
"                             +  ",
".                               ",
"     .                          ",
"                               +",
"                                ",
"                        +       ",
" .                          +   ",
"                                ",
"                                ",
"                                ",
"                              + ",
"                         +      ",
"                                ",
"                    +           ",
"                               +",
"                                ",
"                             +  ",
"                         +      ",
"                      +         ",
"                             +  ",
"                 +        +     ",
"                                ",
"                        +      +",
"                   +       +    ",
"                                ",
"                      +      +  ",
"                          +     ",
"              +   +             ",
"                    +   +   +  +"};
