/* XPM */
static char * player_xpm[] = {
"32 32 134 2",
"  	c #F67900",
". 	c #F28700",
"+ 	c #4E3931",
"@ 	c #F96A00",
"# 	c #211615",
"$ 	c #412923",
"% 	c #FEE9BA",
"& 	c #040506",
"* 	c #070708",
"= 	c #08080D",
"- 	c #382723",
"; 	c #020308",
"> 	c #4B3A33",
", 	c #9C897D",
"' 	c #CDA385",
") 	c #665A4D",
"! 	c #DFA87E",
"~ 	c #332521",
"{ 	c #B99781",
"] 	c #A08D88",
"^ 	c #FEE3B2",
"/ 	c #362A2A",
"( 	c #816960",
"_ 	c #F0CAAD",
": 	c #FCDDB6",
"< 	c #3D3C41",
"[ 	c #403938",
"} 	c #241B1B",
"| 	c #907E7E",
"1 	c #744C3D",
"2 	c #F5E2D4",
"3 	c #312120",
"4 	c #473D3D",
"5 	c #7D6D63",
"6 	c #2E2D31",
"7 	c #2C2222",
"8 	c #84716F",
"9 	c #191113",
"0 	c #564138",
"a 	c #3E3939",
"b 	c #0F0F14",
"c 	c #1E1315",
"d 	c #1A1820",
"e 	c #1D212C",
"f 	c #DAC8C2",
"g 	c #371412",
"h 	c #4F3535",
"i 	c #5D4C48",
"j 	c #383742",
"k 	c #10151D",
"l 	c #151A23",
"m 	c #4B3E39",
"n 	c #1B202B",
"o 	c #222834",
"p 	c #3A3333",
"q 	c #816E6D",
"r 	c #2F0E0E",
"s 	c #4D3F3F",
"t 	c #3C3F4D",
"u 	c #373943",
"v 	c #3C3C45",
"w 	c #261917",
"x 	c #35343C",
"y 	c #242A38",
"z 	c #312D2D",
"A 	c #C8B8B1",
"B 	c #2C1F1D",
"C 	c #3B3E48",
"D 	c #0F1117",
"E 	c #3B3B40",
"F 	c #191C24",
"G 	c #1C1E2A",
"H 	c #222A38",
"I 	c #3A3334",
"J 	c #C4AB9B",
"K 	c #3E3535",
"L 	c #42393C",
"M 	c #39332F",
"N 	c #362C2C",
"O 	c #66534C",
"P 	c #49342F",
"Q 	c #35241E",
"R 	c #333742",
"S 	c #2D2D36",
"T 	c #3A3336",
"U 	c #1F2732",
"V 	c #3B3639",
"W 	c #282326",
"X 	c #383337",
"Y 	c #211D1D",
"Z 	c #3D393D",
"` 	c #18191E",
" .	c #323641",
"..	c #5D4B43",
"+.	c #FCE3BB",
"@.	c #313035",
"#.	c #2D313C",
"$.	c #242C37",
"%.	c #363233",
"&.	c #000000",
"*.	c #333134",
"=.	c #101319",
"-.	c #18191F",
";.	c #343132",
">.	c #29272A",
",.	c #242C39",
"'.	c #131620",
").	c #020408",
"!.	c #16171F",
"~.	c #15141A",
"{.	c #101115",
"].	c #31231E",
"^.	c #293E46",
"/.	c #211816",
"(.	c #29211E",
"_.	c #302C30",
":.	c #4A2C27",
"<.	c #263744",
"[.	c #1E1412",
"}.	c #1D1211",
"|.	c #292F39",
"1.	c #05080A",
"2.	c #462B24",
"3.	c #26333B",
"4.	c #3A2521",
"5.	c #292D37",
"6.	c #1F110E",
"7.	c #1C110D",
"8.	c #160D0B",
"9.	c #201412",
"0.	c #5B3830",
"a.	c #5D3B31",
"b.	c #341E18",
"c.	c #5F3E31",
"                                                                ",
"      .                                                         ",
"                                                                ",
"                                +                         @     ",
".                             # $ %                             ",
"          .               & & * = - ;                           ",
"                            > , ' ) !                         @ ",
"                            ~ { ] ^ /                           ",
"                              ( _ :             @               ",
"  .                     < [ } | 1 2 3 4 5               @       ",
"                6         = 7 8 9 0 a b                         ",
"                c d       e [ f g h i j                         ",
"                k l m   n o p q r s t u v                       ",
"                  d w x n y z A B 4 C D E                   @   ",
"                    k F G H I J K L v   u E       @             ",
"                        M o N O P Q R   S T                     ",
"                          U N I V W R X Y Z                     ",
"                          e ` T I X x  ...+.                  @ ",
"                          o ` @.6 W D #.                        ",
"                          $.l %.&.*.=.#.                  @     ",
"                          $.-.;.&.>.k #.          @             ",
"                          ,.=.;.&.d '.#.    @                   ",
"                          ).=.z &.!.'.k                   @     ",
"                        ,.&.b ~.&.=.` {.            @           ",
"                        $.&.} ].^./.(.9 _.                      ",
"                        ,.&.].:.<.[.$ }.|.      @             @ ",
"                        1.&.# 2.3.3.4.9 5.            @         ",
"                            6.7.& ).Q w                         ",
"                            8.6.    9.8.    @             @     ",
"                          0.a.w     # b.c.          @           ",
"                            @       @                           ",
"                                        @       @       @     @ "};
